<?xml version="1.0" encoding="utf-8"?>
<!-- Generator: Adobe Illustrator 24.2.0, SVG Export Plug-In . SVG Version: 6.00 Build 0)  -->
<svg version="1.1" id="Ebene_1" xmlns="http://www.w3.org/2000/svg" xmlns:xlink="http://www.w3.org/1999/xlink" x="0px" y="0px"
	 viewBox="0 0 16 16" style="enable-background:new 0 0 16 16;" xml:space="preserve">
<path d="M14.8,7.2l-3,3c-1.7,1.7-4.3,1.7-6,0C5.5,10,5.3,9.7,5.1,9.4L6.5,8c0.1-0.1,0.2-0.1,0.2-0.2C6.8,8.2,7,8.5,7.2,8.8
	c0.8,0.8,2.2,0.8,3,0l3-3c0.8-0.8,0.8-2.2,0-3c-0.8-0.8-2.2-0.8-3,0L9.2,3.8C8.3,3.5,7.4,3.4,6.5,3.5l2.3-2.3c1.7-1.7,4.4-1.7,6,0
	C16.4,2.9,16.4,5.6,14.8,7.2z M6.8,12.2l-1.1,1.1c-0.8,0.8-2.2,0.8-3,0c-0.8-0.8-0.8-2.2,0-3l3-3c0.8-0.8,2.2-0.8,3,0
	C9,7.5,9.2,7.8,9.3,8.2C9.4,8.1,9.4,8.1,9.5,8l1.4-1.4c-0.2-0.3-0.4-0.6-0.6-0.9c-1.7-1.7-4.3-1.7-6,0l-3,3c-1.7,1.7-1.7,4.4,0,6
	s4.3,1.7,6,0l2.3-2.3C8.6,12.6,7.7,12.5,6.8,12.2z"/>
</svg>
